<svg xmlns="http://www.w3.org/2000/svg" viewBox="0 0 96 116" role="img" aria-label="Start rider avatar">
  <defs>
    <filter id="shadow" x="-30%" y="-20%" width="160%" height="150%">
      <feDropShadow dx="0" dy="6" stdDeviation="4" flood-color="#000" flood-opacity=".35"/>
    </filter>
  </defs>
  <g filter="url(#shadow)" shape-rendering="geometricPrecision">
    <path d="M22 105 31 61h34l9 44H58l-3-27H43l-3 27Z" fill="#171820" stroke="#07070a" stroke-width="3"/>
    <path d="M19 61c-8 17-10 32-8 43 1 5 9 4 10-1l8-35Z" fill="#e58a60" stroke="#111" stroke-width="3"/>
    <path d="M77 61c8 17 10 32 8 43-1 5-9 4-10-1l-8-35Z" fill="#e58a60" stroke="#111" stroke-width="3"/>
    <path d="M23 34c7-8 43-8 50 0l-4 40H27Z" fill="#effffc" stroke="#111" stroke-width="3"/>
    <g fill="#178f4b" stroke="#064622" stroke-width="1.5">
      <path d="M32 48h8l-4 6 5 2-8 4 2-6-5-2Z"/>
      <path d="M49 45h8l-4 6 5 2-8 4 2-6-5-2Z"/>
      <path d="M58 61h8l-4 6 5 2-8 4 2-6-5-2Z"/>
      <path d="M38 65h8l-4 6 5 2-8 4 2-6-5-2Z"/>
    </g>
    <path d="M31 25c0-14 34-14 34 0v7c0 10-8 19-17 19s-17-9-17-19Z" fill="#e99b72" stroke="#111" stroke-width="3"/>
    <path d="M30 26c2-15 10-20 23-18 12 2 17 10 15 21-5-5-10-7-18-7-9 0-15 2-20 4Z" fill="#161016" stroke="#07070a" stroke-width="3"/>
    <path d="M36 31h8M52 31h8" stroke="#111" stroke-width="3" stroke-linecap="round"/>
    <path d="M41 40c5 4 10 4 15 0" fill="none" stroke="#fff" stroke-width="4" stroke-linecap="round"/>
    <path d="M35 18c7-7 19-10 31-3" fill="none" stroke="#473a95" stroke-width="4" stroke-linecap="round"/>
    <path d="M6 8h28v7H6z" fill="#ffe92b" stroke="#111" stroke-width="2"/>
    <path d="M34 8h28v7H34z" fill="#f11c20" stroke="#111" stroke-width="2"/>
    <path d="M10 24h42v6H10z" fill="#79cf7a" stroke="#111" stroke-width="2"/>
    <path d="M10 39h48v6H10z" fill="#f1aa26" stroke="#111" stroke-width="2"/>
  </g>
</svg>
